<?xml version="1.0" encoding="UTF-8" standalone="no"?>
<svg
   xmlns:dc="http://purl.org/dc/elements/1.1/"
   xmlns:cc="http://creativecommons.org/ns#"
   xmlns:rdf="http://www.w3.org/1999/02/22-rdf-syntax-ns#"
   xmlns:svg="http://www.w3.org/2000/svg"
   xmlns="http://www.w3.org/2000/svg"
   xmlns:sodipodi="http://sodipodi.sourceforge.net/DTD/sodipodi-0.dtd"
   xmlns:inkscape="http://www.inkscape.org/namespaces/inkscape"
   height="1277.6016pt"
   viewBox="0 0 2077.6016 1277.6016"
   width="2077.6016pt"
   version="1.1"
   id="svg58"
   sodipodi:docname="croissant.svg"
   inkscape:version="0.92.3 (2405546, 2018-03-11)"
   inkscape:export-filename="C:\Users\Guillaume\Documents\Programmes\XAMPP\xampp\htdocs\refonte\img\placeholder.png"
   inkscape:export-xdpi="279"
   inkscape:export-ydpi="279">
  <metadata
     id="metadata64">
    <rdf:RDF>
      <cc:Work
         rdf:about="">
        <dc:format>image/svg+xml</dc:format>
        <dc:type
           rdf:resource="http://purl.org/dc/dcmitype/StillImage" />
        <dc:title></dc:title>
      </cc:Work>
    </rdf:RDF>
  </metadata>
  <defs
     id="defs62" />
  <sodipodi:namedview
     pagecolor="#ffffff"
     bordercolor="#666666"
     borderopacity="1"
     objecttolerance="10"
     gridtolerance="10"
     guidetolerance="10"
     inkscape:pageopacity="0"
     inkscape:pageshadow="2"
     inkscape:window-width="1304"
     inkscape:window-height="745"
     id="namedview60"
     showgrid="false"
     inkscape:zoom="0.18904895"
     inkscape:cx="1256.79"
     inkscape:cy="1016.7798"
     inkscape:window-x="54"
     inkscape:window-y="-8"
     inkscape:window-maximized="1"
     inkscape:current-layer="svg58"
     fit-margin-top="400"
     fit-margin-bottom="400"
     fit-margin-right="800"
     fit-margin-left="800" />
  <rect
     style="color:#000000;clip-rule:nonzero;display:inline;overflow:visible;visibility:visible;opacity:1;isolation:auto;mix-blend-mode:normal;color-interpolation:sRGB;color-interpolation-filters:linearRGB;solid-color:#000000;solid-opacity:1;vector-effect:none;fill:#d3d7cf;fill-opacity:1;fill-rule:evenodd;stroke:none;stroke-width:0.66282988;stroke-linecap:butt;stroke-linejoin:miter;stroke-miterlimit:4;stroke-dasharray:none;stroke-dashoffset:0;stroke-opacity:1;marker:none;paint-order:normal;color-rendering:auto;image-rendering:auto;shape-rendering:auto;text-rendering:auto;enable-background:accumulate"
     id="rect839"
     width="2070.8923"
     height="1281.4142"
     x="3.9672287"
     y="4.1218395" />
  <path
     d="m 1277.6016,638.8008 c 0,131.88672 -106.9141,238.80078 -238.8008,238.80078 -131.88671,0 -238.80077,-106.91406 -238.80077,-238.80078 0,-131.88672 106.91406,-238.80078 238.80077,-238.80078 131.8867,0 238.8008,106.91406 238.8008,238.80078 z m 0,0"
     id="path2"
     style="fill:#204a87"
     inkscape:connector-curvature="0" />
  <path
     d="m 1245.3985,638.8008 c 0,114.10156 -92.4961,206.59766 -206.5977,206.59766 -114.10155,0 -206.59764,-92.4961 -206.59764,-206.59766 0,-114.10156 92.49609,-206.59766 206.59764,-206.59766 114.1016,0 206.5977,92.4961 206.5977,206.59766 z m 0,0"
     id="path4"
     style="fill:#3465a4"
     inkscape:connector-curvature="0" />
  <path
     d="m 1180.7657,710.10939 c 0.01,-0.0351 0.012,-0.0664 0.016,-0.10156 0.016,-0.10937 0.031,-0.21875 0.047,-0.32812 0.01,-0.0508 0.012,-0.10157 0.02,-0.15235 0.012,-0.0937 0.023,-0.1914 0.031,-0.28906 0.01,-0.0547 0.012,-0.11328 0.02,-0.17187 0.01,-0.0899 0.016,-0.17969 0.023,-0.26954 0.01,-0.0664 0.012,-0.125 0.016,-0.1914 0.01,-0.0859 0.012,-0.17188 0.019,-0.25781 0,-0.0664 0.01,-0.13282 0.012,-0.19922 0,-0.0937 0.01,-0.1875 0.012,-0.28125 0,-0.0586 0,-0.11328 0,-0.17188 0,-0.1289 0.01,-0.25781 0.01,-0.38672 0,-0.0234 0,-0.0508 0,-0.0781 0,-0.12109 0,-0.24609 0,-0.37109 0,-0.125 0,-0.2461 0,-0.3711 0,-0.34375 -0,-0.68359 -0,-1.02734 0,-0.0703 -0,-0.14063 -0,-0.20703 0,-0.26953 -0,-0.53907 -0.01,-0.8086 -0,-0.0898 -0,-0.18359 -0,-0.27734 -0,-0.26563 -0.012,-0.53125 -0.016,-0.79688 -0,-0.0703 -0,-0.13672 -0,-0.20703 -0.01,-0.32812 -0.019,-0.66015 -0.027,-0.99219 0,-0.008 0,-0.0117 0,-0.0156 -0.023,-0.69922 -0.051,-1.39453 -0.086,-2.09375 0,-0.0469 -0,-0.0977 -0.01,-0.14844 -0.016,-0.29687 -0.031,-0.59375 -0.047,-0.88672 0,-0.0547 -0,-0.10937 -0.01,-0.16406 -0.016,-0.30078 -0.039,-0.60156 -0.055,-0.90625 -0,-0.0273 -0,-0.0586 -0.01,-0.0898 v 0.004 c -0.4844,-7.59765 -1.6094,-15.03125 -3.3243,-22.24609 0.051,-0.0781 0.1016,-0.16016 0.1485,-0.24609 0.059,-0.0977 0.1172,-0.19532 0.1718,-0.29297 0.094,-0.17188 0.1836,-0.34375 0.2696,-0.51953 0,-0.004 0,-0.008 0.01,-0.0117 0.043,-0.0859 0.082,-0.17578 0.125,-0.26172 0.07,-0.15235 0.1367,-0.30078 0.1953,-0.45313 0.012,-0.0273 0.027,-0.0547 0.039,-0.0859 0.01,-0.0234 0.016,-0.0469 0.027,-0.0703 0.043,-0.11328 0.086,-0.22656 0.1289,-0.33593 0.01,-0.0234 0.016,-0.0391 0.019,-0.0586 0.043,-0.12109 0.086,-0.24219 0.125,-0.36328 0.047,-0.14062 0.09,-0.28125 0.1328,-0.42187 0.1445,-0.4961 0.2578,-1.00391 0.3398,-1.51954 0.012,-0.0742 0.023,-0.14453 0.035,-0.21875 0.043,-0.29296 0.074,-0.58203 0.098,-0.875 0.01,-0.082 0.012,-0.16015 0.016,-0.24218 0.01,-0.15235 0.016,-0.30078 0.02,-0.44922 0.01,-0.30078 0,-0.60156 -0.01,-0.90625 -0.016,-0.30078 -0.039,-0.60156 -0.074,-0.90625 -0.031,-0.30078 -0.078,-0.60156 -0.1367,-0.90235 -0.098,-0.52734 -0.2265,-1.04687 -0.3945,-1.5625 -0.1524,-0.46484 -0.3047,-0.92968 -0.457,-1.38671 -0.059,-0.17969 -0.1172,-0.35547 -0.1758,-0.53125 -0.09,-0.26563 -0.1758,-0.52344 -0.2656,-0.78516 -0.098,-0.28516 -0.1915,-0.57422 -0.293,-0.85938 -0.125,-0.36718 -0.2539,-0.73437 -0.3789,-1.10156 -0.074,-0.21094 -0.1524,-0.42187 -0.2266,-0.63672 -0.1015,-0.28906 -0.2031,-0.57812 -0.3086,-0.86328 -0.074,-0.21094 -0.1484,-0.41797 -0.2226,-0.6289 -0.1094,-0.28516 -0.211,-0.57813 -0.3164,-0.86329 -0.082,-0.21875 -0.1641,-0.4375 -0.2422,-0.65234 -0.1016,-0.27344 -0.2032,-0.55078 -0.3086,-0.82422 -0.082,-0.21484 -0.1641,-0.43359 -0.2461,-0.64844 -0.1094,-0.28515 -0.2188,-0.57031 -0.3281,-0.85156 -0.082,-0.20703 -0.1602,-0.41406 -0.2383,-0.61719 -0.1211,-0.30859 -0.2422,-0.61328 -0.3633,-0.91406 -0.07,-0.18359 -0.1406,-0.36328 -0.2109,-0.53906 -0.1485,-0.36719 -0.2969,-0.73438 -0.4454,-1.10156 -0.2187,-0.53907 -0.4375,-1.07422 -0.664,-1.60938 -0.2461,-0.59765 -0.5,-1.1914 -0.7539,-1.78515 -0.2149,-0.50782 -0.4336,-1.01172 -0.6563,-1.51563 -0.4414,-1.00781 -0.8867,-2.01172 -1.3476,-3.00781 -0.2266,-0.4961 -0.4571,-0.99219 -0.6875,-1.48828 -0.2032,-0.4336 -0.4102,-0.86719 -0.6172,-1.30078 -0.078,-0.16407 -0.1563,-0.32422 -0.2344,-0.48829 -0.1406,-0.28906 -0.2812,-0.58203 -0.4219,-0.87109 -0.078,-0.15625 -0.1523,-0.30859 -0.2265,-0.46094 -0.2149,-0.4375 -0.4258,-0.86718 -0.6446,-1.29687 -0.2148,-0.42969 -0.4296,-0.85938 -0.6523,-1.28906 -0.074,-0.14844 -0.1484,-0.29688 -0.2266,-0.44532 -0.1562,-0.30078 -0.3125,-0.60547 -0.4687,-0.90625 -0.07,-0.13672 -0.1406,-0.27343 -0.211,-0.41015 -0.2265,-0.42969 -0.4531,-0.85938 -0.6796,-1.28907 -0.5079,-0.95312 -1.0235,-1.90234 -1.5469,-2.84375 -0.543,-0.97656 -1.0899,-1.94531 -1.6485,-2.90234 -0.2343,-0.40625 -0.4687,-0.80859 -0.7031,-1.21094 -0.086,-0.14453 -0.1719,-0.29297 -0.2617,-0.4375 -0.1758,-0.29297 -0.3477,-0.58593 -0.5234,-0.8789 -0.094,-0.15625 -0.1875,-0.3125 -0.2813,-0.46875 -0.168,-0.27735 -0.3359,-0.55469 -0.5078,-0.83203 -0.098,-0.16797 -0.2031,-0.33204 -0.3047,-0.4961 -0.168,-0.26953 -0.3359,-0.54297 -0.5039,-0.8164 -0.098,-0.15625 -0.1992,-0.31641 -0.3008,-0.47266 -0.1718,-0.27734 -0.3476,-0.55469 -0.5195,-0.82813 -0.098,-0.15625 -0.1953,-0.30859 -0.293,-0.46093 -0.1914,-0.29688 -0.3828,-0.59375 -0.5742,-0.89063 -0.082,-0.125 -0.1601,-0.25 -0.2422,-0.375 -0.2734,-0.42187 -0.5508,-0.84375 -0.8281,-1.26172 -0.062,-0.0898 -0.125,-0.17968 -0.1836,-0.26953 -0.023,-0.0273 -0.043,-0.0547 -0.062,-0.082 -0.039,-0.0625 -0.082,-0.12109 -0.1289,-0.17969 0,0 0,0 0,-0.004 -0.02,-0.0234 -0.039,-0.0469 -0.055,-0.0703 -0.012,-0.0156 -0.019,-0.0273 -0.027,-0.0352 -0.035,-0.0469 -0.07,-0.0937 -0.1094,-0.14063 0,-0.004 0,-0.004 -0,-0.004 -0.02,-0.0234 -0.039,-0.0469 -0.059,-0.0703 -0,-0.004 -0,-0.004 -0,-0.008 -0.027,-0.22656 -0.062,-0.45703 -0.1054,-0.6875 -0.027,-0.15234 -0.062,-0.30469 -0.098,-0.45703 -0.3086,-1.35156 -0.8633,-2.64062 -1.6602,-3.78906 -0.1563,-0.22266 -0.3242,-0.44141 -0.5,-0.65625 -0.1406,-0.16797 -0.2852,-0.33203 -0.4336,-0.4961 -0.059,-0.0586 -0.1211,-0.125 -0.1797,-0.18359 -0.2305,-0.23047 -0.457,-0.46094 -0.6875,-0.69141 -0.031,-0.0312 -0.062,-0.0625 -0.098,-0.0937 -0.066,-0.0664 -0.1328,-0.13281 -0.1992,-0.19921 -0.2031,-0.19922 -0.4023,-0.39844 -0.6055,-0.60157 -0.066,-0.0664 -0.1367,-0.1289 -0.2031,-0.19531 -0.098,-0.0977 -0.1953,-0.19922 -0.2969,-0.29297 -0.1133,-0.11328 -0.2265,-0.22265 -0.3437,-0.33594 -0.051,-0.0469 -0.1016,-0.0977 -0.1524,-0.14843 -0.2851,-0.27735 -0.5703,-0.55078 -0.8554,-0.82422 -0.4922,-0.47266 -0.9844,-0.94141 -1.4844,-1.40625 -0.055,-0.0508 -0.1094,-0.10156 -0.1641,-0.15235 -0.019,-0.0156 -0.035,-0.0312 -0.051,-0.0469 -0.2734,-0.25391 -0.5508,-0.50781 -0.8242,-0.76172 -0.01,-0.0117 -0.019,-0.0195 -0.027,-0.0273 -0.086,-0.0781 -0.168,-0.15625 -0.2539,-0.23047 -2.207,-2.02344 -4.4648,-3.98828 -6.7734,-5.89453 -0.7032,-0.57813 -1.4063,-1.15235 -2.1211,-1.72266 -0.25,-0.20312 -0.5039,-0.40234 -0.7578,-0.60547 -1.5196,-1.19922 -3.0586,-2.375 -4.6172,-3.52734 -1.2969,-0.95703 -2.6094,-1.89844 -3.9336,-2.81641 -1.3242,-0.92187 -2.6602,-1.82422 -4.0117,-2.70703 -0.8086,-0.52734 -1.6211,-1.05469 -2.4415,-1.57031 -6.2773,-3.95703 -12.8164,-7.50781 -19.582,-10.61719 -0.2969,-0.13672 -0.5898,-0.25391 -0.8906,-0.35547 -0.1016,-0.0352 -0.1992,-0.0664 -0.3008,-0.0977 -0.1328,-0.043 -0.2695,-0.082 -0.4023,-0.11329 -0.2188,-0.0586 -0.4375,-0.10546 -0.6563,-0.14843 -0.031,-0.004 -0.062,-0.0117 -0.094,-0.0156 -0.1445,-0.0234 -0.293,-0.0469 -0.4375,-0.0664 -0.293,-0.0352 -0.5859,-0.0586 -0.875,-0.0664 -0.012,-0.0742 -0.019,-0.15234 -0.027,-0.22266 -0,-0.0312 -0.01,-0.0547 -0.016,-0.082 -0,-0.0234 -0,-0.0469 -0.01,-0.0703 -0.016,-0.11719 -0.035,-0.23047 -0.055,-0.34375 0,-0.008 0,-0.0195 -0,-0.0273 -0.023,-0.125 -0.043,-0.25 -0.07,-0.3711 -0,-0.0195 -0.01,-0.0352 -0.01,-0.0547 -0.023,-0.11328 -0.051,-0.22656 -0.074,-0.33984 -0,-0.008 -0,-0.0195 -0.01,-0.0273 -0.027,-0.12891 -0.059,-0.25391 -0.09,-0.37891 -0,-0.004 -0,-0.008 -0,-0.0117 -0.016,-0.0508 -0.027,-0.10156 -0.039,-0.15234 -0.02,-0.0664 -0.039,-0.13281 -0.059,-0.19922 -0,-0.0156 -0.01,-0.0312 -0.012,-0.0469 -0.01,-0.0234 -0.016,-0.0469 -0.023,-0.0742 -0.051,-0.17579 -0.1055,-0.34766 -0.164,-0.51954 -0.016,-0.0391 -0.027,-0.0781 -0.043,-0.11718 -0.01,-0.0156 -0.012,-0.0312 -0.016,-0.0469 -0.012,-0.0312 -0.023,-0.0625 -0.031,-0.0937 -0.074,-0.20312 -0.1524,-0.40625 -0.2344,-0.60547 -0,-0.008 -0.01,-0.0156 -0.012,-0.0273 -0.098,-0.23438 -0.1992,-0.46484 -0.3125,-0.69141 0,-0.004 -0,-0.008 -0,-0.008 -0.1094,-0.23047 -0.2305,-0.45312 -0.3516,-0.67187 0,-0.004 -0,-0.008 -0.01,-0.0117 -0.059,-0.10547 -0.1211,-0.21094 -0.1797,-0.3125 -0,-0.004 -0,-0.008 -0.01,-0.0117 -0.1289,-0.21094 -0.2617,-0.41797 -0.4023,-0.6211 0,-0.008 -0,-0.0117 -0.01,-0.0156 -0.1367,-0.19922 -0.2813,-0.39063 -0.4297,-0.58203 -0.01,-0.008 -0.012,-0.0156 -0.019,-0.0195 -0.1484,-0.1875 -0.3008,-0.3711 -0.4609,-0.54688 -0,0 -0,-0.004 -0.01,-0.004 -0.9961,-1.10157 -2.1914,-1.96094 -3.5391,-2.48047 -2.082,-0.80078 -4.1836,-1.5586 -6.2969,-2.26563 -0.5273,-0.17969 -1.0586,-0.35156 -1.5898,-0.52344 -1.5938,-0.51171 -3.1953,-1 -4.8047,-1.46093 -1.3438,-0.38282 -2.6914,-0.7461 -4.0469,-1.09375 -0.2695,-0.0703 -0.539,-0.13672 -0.8125,-0.20703 -0.2734,-0.0664 -0.5429,-0.13282 -0.8125,-0.19922 -0.5469,-0.13282 -1.0898,-0.26172 -1.6367,-0.38672 -0.543,-0.125 -1.0898,-0.25 -1.6367,-0.36719 -0.2735,-0.0625 -0.5469,-0.12109 -0.8203,-0.17969 -2.1953,-0.46875 -4.4024,-0.88281 -6.6211,-1.25 -0.2774,-0.0469 -0.5547,-0.0937 -0.8321,-0.13672 -0.5546,-0.0859 -1.1132,-0.17187 -1.6718,-0.2539 -0.2774,-0.043 -0.5547,-0.082 -0.836,-0.1211 -0.5586,-0.0781 -1.1172,-0.15234 -1.6797,-0.22656 -0.5585,-0.0742 -1.1171,-0.14453 -1.6796,-0.21094 -0.2813,-0.0312 -0.5625,-0.0664 -0.8438,-0.0937 -0.2812,-0.0312 -0.5625,-0.0625 -0.8437,-0.0937 -0.5625,-0.0586 -1.1289,-0.11328 -1.6914,-0.16796 -0.2813,-0.0273 -0.5625,-0.0547 -0.8477,-0.0781 -0.2813,-0.0234 -0.5664,-0.0508 -0.8477,-0.0742 -0.5664,-0.043 -1.1367,-0.0898 -1.6992,-0.1289 -0.2851,-0.0195 -0.5703,-0.0391 -0.8554,-0.0586 -1.9883,-0.1289 -3.9844,-0.21484 -5.9922,-0.26172 -1.1446,-0.0273 -2.2969,-0.043 -3.4493,-0.043 -1.1523,0 -2.3007,0.0156 -3.4453,0.043 -2.0078,0.0469 -4.0039,0.13282 -5.9961,0.26172 -0.2851,0.0195 -0.5664,0.0391 -0.8515,0.0586 -0.5664,0.0391 -1.1328,0.0859 -1.6992,0.1289 -0.2813,0.0234 -0.5664,0.0508 -0.8477,0.0742 -0.2812,0.0234 -0.5664,0.0508 -0.8477,0.0781 -0.5664,0.0508 -1.1289,0.10937 -1.6953,0.16796 -0.2812,0.0312 -0.5586,0.0625 -0.8437,0.0937 -0.2774,0.0312 -0.5586,0.0625 -0.8399,0.0937 -0.5625,0.0664 -1.1211,0.13672 -1.6836,0.21094 -0.5585,0.0703 -1.1171,0.14453 -1.6757,0.22656 -0.2813,0.0391 -0.5586,0.0781 -0.8399,0.1211 -0.5586,0.082 -1.1133,0.16797 -1.6679,0.2539 -0.2774,0.043 -0.5586,0.0898 -0.836,0.13672 -2.2187,0.36328 -4.4258,0.78125 -6.6172,1.25 -0.2734,0.0586 -0.5468,0.11719 -0.8203,0.17969 -0.5508,0.11719 -1.0976,0.24219 -1.6406,0.36719 -0.5469,0.125 -1.0899,0.2539 -1.6328,0.38672 -0.2735,0.0664 -0.543,0.13281 -0.8125,0.19922 -0.2735,0.0703 -0.543,0.13671 -0.8164,0.20703 -1.3516,0.34765 -2.70316,0.71093 -4.043,1.09375 -1.60937,0.46093 -3.21094,0.94922 -4.80469,1.46093 -0.53515,0.17188 -1.0625,0.34766 -1.59375,0.52344 -2.11328,0.70703 -4.21093,1.46485 -6.29297,2.26563 -1.34765,0.51953 -2.54296,1.3789 -3.54296,2.48047 0,0 -0.004,0.004 -0.004,0.004 -0.16016,0.17578 -0.3125,0.35938 -0.46484,0.54688 -0.004,0.008 -0.008,0.0117 -0.0156,0.0195 -0.14844,0.1914 -0.29297,0.38281 -0.43359,0.58203 0,0.004 -0.004,0.008 -0.008,0.0156 -0.13671,0.19922 -0.27343,0.40625 -0.39843,0.6211 -0.004,0.004 -0.008,0.008 -0.008,0.0117 -0.0625,0.10156 -0.12109,0.20703 -0.18359,0.3125 0,0.004 -0.004,0.008 -0.008,0.0117 -0.1211,0.21875 -0.23828,0.4414 -0.34766,0.67187 -0.004,0.004 -0.004,0.008 -0.008,0.008 -0.10938,0.22657 -0.21484,0.45703 -0.30859,0.69141 -0.004,0.0117 -0.008,0.0195 -0.0117,0.0273 -0.082,0.19922 -0.16407,0.40235 -0.23828,0.60547 -0.0117,0.0312 -0.0195,0.0664 -0.0312,0.0937 -0.004,0.0156 -0.008,0.0312 -0.0156,0.0469 -0.0156,0.0391 -0.0273,0.0781 -0.043,0.11718 -0.0586,0.17188 -0.11328,0.34375 -0.16406,0.51954 -0.008,0.0273 -0.0156,0.0508 -0.0234,0.0742 -0.004,0.0156 -0.008,0.0312 -0.0117,0.0469 -0.0234,0.0664 -0.0391,0.13281 -0.0586,0.19922 -0.0117,0.0508 -0.0234,0.10156 -0.0391,0.15234 v 0.0117 c -0.0352,0.125 -0.0664,0.25 -0.0937,0.37891 -0.004,0.008 -0.004,0.0195 -0.008,0.0273 -0.0234,0.11328 -0.0469,0.22656 -0.0742,0.33984 -0.004,0.0195 -0.004,0.0352 -0.008,0.0547 -0.0234,0.1211 -0.0469,0.2461 -0.0703,0.3711 -0.004,0.008 -0.004,0.0195 -0.004,0.0273 -0.0195,0.11328 -0.0391,0.22656 -0.0547,0.34375 -0.004,0.0234 -0.004,0.0469 -0.008,0.0703 -0.004,0.0273 -0.008,0.0508 -0.0117,0.082 -0.0117,0.0742 -0.0234,0.14844 -0.0312,0.22266 -0.28907,0.008 -0.58204,0.0312 -0.875,0.0664 -0.14454,0.0195 -0.29297,0.043 -0.44141,0.0664 -0.0273,0.008 -0.0586,0.0117 -0.0898,0.0156 -0.21875,0.043 -0.44141,0.0898 -0.66016,0.14843 -0.13281,0.0312 -0.26563,0.0703 -0.39844,0.11329 -0.10156,0.0312 -0.20312,0.0625 -0.30078,0.0977 -0.30078,0.10156 -0.59766,0.21875 -0.89453,0.35547 -6.76563,3.10938 -13.30078,6.66016 -19.58203,10.61719 -0.81641,0.51562 -1.63281,1.04297 -2.44141,1.57031 -1.89062,1.23828 -3.75781,2.51172 -5.59765,3.82031 -0.78907,0.5625 -1.57032,1.12891 -2.35157,1.70313 -1.55859,1.15234 -3.09765,2.32812 -4.61718,3.52734 -0.25391,0.20313 -0.50782,0.40235 -0.75782,0.60547 -0.71093,0.57031 -1.42187,1.14063 -2.12109,1.72266 -2.30859,1.90625 -4.56641,3.87109 -6.77344,5.89453 -0.0859,0.0742 -0.16797,0.15234 -0.2539,0.23047 -0.008,0.008 -0.0195,0.0156 -0.0273,0.0273 -0.27344,0.25 -0.55078,0.50391 -0.82422,0.76172 -0.0156,0.0156 -0.0312,0.0312 -0.0508,0.0469 -0.0547,0.0508 -0.10937,0.10157 -0.16406,0.15235 -0.49609,0.46484 -0.99219,0.93359 -1.48438,1.40625 -0.28906,0.27344 -0.57031,0.54687 -0.85546,0.82422 -0.0508,0.0469 -0.10157,0.0977 -0.15235,0.14843 -0.11328,0.11329 -0.22656,0.22266 -0.34375,0.33204 -0.0977,0.0977 -0.19531,0.19531 -0.29687,0.29296 -0.0664,0.0664 -0.13672,0.13282 -0.20313,0.19922 -0.19922,0.19922 -0.40234,0.39844 -0.60547,0.59766 -0.0664,0.0664 -0.13281,0.13281 -0.19922,0.19922 -0.0312,0.0312 -0.0625,0.0664 -0.0937,0.0977 -0.23046,0.23047 -0.46093,0.45704 -0.6875,0.6875 -0.0586,0.0625 -0.12109,0.125 -0.17968,0.1875 -0.15235,0.16016 -0.29688,0.32422 -0.4375,0.4961 -0.17578,0.21094 -0.33985,0.43359 -0.4961,0.65625 -0.80078,1.14453 -1.35547,2.43359 -1.66406,3.78515 -0.0352,0.15235 -0.0664,0.30469 -0.0937,0.46094 -0.043,0.22656 -0.0781,0.45703 -0.10547,0.6875 0,0 -0.004,0 -0.004,0.004 -0.0195,0.0234 -0.0391,0.0469 -0.0586,0.0703 -0.004,0.004 -0.004,0.004 -0.004,0.004 -0.0391,0.0469 -0.0742,0.0977 -0.10938,0.14062 -0.0117,0.0117 -0.0195,0.0234 -0.0273,0.0352 -0.0156,0.0234 -0.0352,0.0469 -0.0547,0.0742 v 0.004 c -0.0469,0.0586 -0.0859,0.11719 -0.12891,0.17578 -0.0195,0.0273 -0.0391,0.0547 -0.0625,0.0859 -0.0586,0.0859 -0.12109,0.17578 -0.18359,0.26953 -0.27734,0.41797 -0.55469,0.83594 -0.82813,1.25782 -0.082,0.125 -0.16406,0.2539 -0.24609,0.3789 -0.19141,0.29688 -0.38281,0.59375 -0.57422,0.89063 -0.0977,0.15234 -0.1914,0.30468 -0.28906,0.45703 -0.17578,0.27734 -0.35156,0.55078 -0.52344,0.82812 -0.10156,0.15625 -0.19922,0.31641 -0.30078,0.47657 -0.16797,0.27343 -0.33594,0.54296 -0.50391,0.8164 -0.10156,0.16406 -0.20312,0.32813 -0.30468,0.49219 -0.17188,0.27734 -0.33985,0.55859 -0.50782,0.83594 -0.0937,0.15625 -0.1875,0.3125 -0.28125,0.46875 -0.17578,0.28906 -0.34765,0.58593 -0.52343,0.8789 -0.0859,0.14453 -0.17578,0.28907 -0.26172,0.4336 -0.23438,0.40234 -0.46875,0.80859 -0.70313,1.21093 -0.55859,0.96094 -1.10547,1.92969 -1.64843,2.90235 -0.52344,0.9414 -1.03907,1.89062 -1.54688,2.84765 -0.22656,0.42579 -0.45312,0.85547 -0.67969,1.28907 -0.0703,0.13672 -0.14062,0.27343 -0.21093,0.40625 -0.15625,0.30468 -0.31641,0.60547 -0.46875,0.91015 -0.0781,0.14844 -0.15235,0.29688 -0.22657,0.44532 -0.21875,0.42578 -0.4375,0.85546 -0.65234,1.28515 -0.21875,0.42969 -0.42969,0.86328 -0.64453,1.29688 -0.0742,0.15234 -0.14844,0.30859 -0.22656,0.46093 -0.14063,0.29297 -0.28125,0.58204 -0.42188,0.875 -0.0781,0.16016 -0.15625,0.32422 -0.23437,0.48829 -0.20704,0.43359 -0.41407,0.86328 -0.61719,1.29687 -0.23047,0.49609 -0.46094,0.99219 -0.6875,1.49219 -0.45703,0.99609 -0.90625,1.99609 -1.34766,3.0039 -0.22265,0.50391 -0.4414,1.00782 -0.65625,1.51563 -0.2539,0.59375 -0.5039,1.1875 -0.7539,1.78906 -0.22266,0.53125 -0.44532,1.06641 -0.66407,1.60547 -0.14843,0.36719 -0.29687,0.73438 -0.44531,1.10156 -0.0703,0.17969 -0.14062,0.35938 -0.21094,0.53907 -0.12109,0.30468 -0.24218,0.60937 -0.36328,0.91406 -0.0781,0.20703 -0.15625,0.41015 -0.23828,0.61719 -0.10937,0.28515 -0.21875,0.57031 -0.32812,0.85156 -0.082,0.21875 -0.16407,0.43359 -0.2461,0.65234 -0.10547,0.27344 -0.20703,0.54688 -0.30859,0.82031 -0.0781,0.21875 -0.16016,0.4336 -0.24219,0.65235 -0.10547,0.28906 -0.20703,0.57812 -0.31641,0.86719 -0.0742,0.20703 -0.14843,0.41406 -0.22265,0.625 -0.10547,0.28906 -0.20703,0.57812 -0.3086,0.86718 -0.0781,0.21094 -0.15234,0.42188 -0.22656,0.63672 -0.0469,0.13281 -0.0937,0.26953 -0.14062,0.40235 -0.0352,-0.0703 -0.0703,-0.14844 -0.10547,-0.22266 -0.51562,1.48438 -1.01953,2.97656 -1.50391,4.47656 -1.20703,3.73828 -0.60156,7.84375 1.41797,10.91016 -1.6875,7.15234 -2.79687,14.51562 -3.27734,22.03906 -0.004,0.0274 -0.004,0.0586 -0.008,0.0899 -0.0195,0.30078 -0.0391,0.60156 -0.0547,0.90625 -0.004,0.0508 -0.004,0.10546 -0.008,0.16015 -0.0156,0.29688 -0.0312,0.59375 -0.043,0.88672 -0.004,0.0508 -0.008,0.10156 -0.0117,0.15234 -0.0312,0.69922 -0.0586,1.39454 -0.082,2.09375 v 0.0117 c -0.0117,0.33203 -0.0195,0.66407 -0.0273,0.9961 -0.004,0.0664 -0.004,0.13672 -0.004,0.20312 -0.008,0.26563 -0.0117,0.53125 -0.0156,0.79688 -0.004,0.0937 -0.004,0.1875 -0.004,0.28125 -0.004,0.26562 -0.008,0.53515 -0.0117,0.80468 v 0.20704 c -0.004,0.34375 -0.004,0.68359 -0.004,1.02734 v 0.375 0.37109 c 0,0.0274 0.004,0.0508 0.004,0.0781 0,0.1289 0.004,0.2539 0.004,0.38281 0.004,0.0586 0.004,0.11719 0.008,0.17578 0.004,0.0937 0.004,0.1875 0.0117,0.27735 0.004,0.0664 0.008,0.13281 0.0117,0.19921 0.004,0.0899 0.008,0.17579 0.0156,0.26172 0.004,0.0625 0.0117,0.125 0.0156,0.1875 0.0117,0.0937 0.0195,0.1836 0.0273,0.27344 0.004,0.0547 0.0117,0.11328 0.0156,0.16797 0.0117,0.0977 0.0234,0.19531 0.0352,0.29297 0.004,0.0469 0.0117,0.0976 0.0195,0.14844 0.0117,0.10937 0.0273,0.21875 0.043,0.32812 0.008,0.0352 0.0117,0.0703 0.0156,0.10547 0.0234,0.14062 0.0469,0.28516 0.0742,0.42578 v 0.004 c 0.0273,0.14062 0.0508,0.28125 0.0781,0.42187 0.0312,0.13281 0.0586,0.26172 0.0859,0.39063 0.0898,0.38672 0.19141,0.76562 0.30469,1.14062 0.0352,0.125 0.0742,0.2461 0.11328,0.3711 0.16016,0.48828 0.33984,0.96484 0.54297,1.42968 0.14844,0.34766 0.30859,0.6836 0.47656,1.01563 0.11719,0.22265 0.23438,0.4375 0.35547,0.65234 0.12109,0.21485 0.25,0.42578 0.37891,0.63281 0.13281,0.20704 0.26562,0.41016 0.40625,0.60938 0.0703,0.10156 0.14062,0.19922 0.21093,0.29687 0.125,0.17579 0.25782,0.34766 0.38672,0.51563 0.0312,0.0352 0.0625,0.0742 0.0937,0.11328 0.13672,0.16797 0.27735,0.33594 0.41797,0.5 0.23828,0.27344 0.48438,0.53516 0.73438,0.78906 0.35156,0.35547 0.71484,0.69141 1.09375,1.01563 0.16406,0.14062 0.33594,0.27734 0.50781,0.41406 0.24219,0.19141 0.48828,0.37109 0.73828,0.55078 0.13672,0.0937 0.27344,0.19141 0.41406,0.28516 0.0977,0.0664 0.19922,0.1289 0.29688,0.19531 8.20312,5.22266 20.52344,3.75781 25.79297,-6.93359 1.07422,-2.1836 2.20312,-4.32813 3.38281,-6.4336 0.15625,-0.28515 0.3125,-0.5625 0.47266,-0.84375 0.0312,-0.0508 0.0586,-0.10547 0.0937,-0.15625 0.82422,0.2461 1.66797,0.36328 2.51172,0.35938 h 0.008 0.13281 0.11328 c 0.0391,0 0.0781,-0.004 0.11719,-0.004 0.043,-0.004 0.082,-0.004 0.12109,-0.004 0.0391,-0.004 0.082,-0.004 0.1211,-0.008 0.043,-0.004 0.082,-0.004 0.12109,-0.008 0.0234,-0.004 0.043,-0.004 0.0703,-0.008 0.0547,-0.004 0.11328,-0.0117 0.17188,-0.0156 0.29687,-0.0312 0.59765,-0.0781 0.89453,-0.14062 0.0234,-0.004 0.0391,-0.008 0.0586,-0.0117 0.0547,-0.0117 0.10547,-0.0234 0.15625,-0.0352 0.0273,-0.008 0.0547,-0.0117 0.082,-0.0195 0.0508,-0.0117 0.10157,-0.0234 0.15235,-0.0391 0.0273,-0.008 0.0547,-0.0156 0.0859,-0.0234 0.0625,-0.0156 0.125,-0.0351 0.18359,-0.0547 0.0156,-0.004 0.0312,-0.008 0.0508,-0.0117 0.0742,-0.0234 0.15234,-0.0469 0.22656,-0.0742 h 0.004 c 0.46094,-0.15625 0.91406,-0.35157 1.35937,-0.58985 0.004,0 0.004,-0.004 0.008,-0.004 0.66406,-0.35547 1.30078,-0.80079 1.89062,-1.33594 h 0.004 c 0.25781,-0.23438 0.50781,-0.48438 0.74609,-0.75 0.008,-0.004 0.0156,-0.0117 0.0195,-0.0156 0.30469,-0.34375 0.60157,-0.71875 0.875,-1.11328 0.0234,-0.0351 0.0469,-0.0703 0.0703,-0.10547 0.24609,-0.35156 0.48828,-0.70312 0.73437,-1.05078 0.0859,-0.12109 0.16797,-0.23828 0.25391,-0.35937 0.54687,-0.77735 1.10156,-1.55078 1.66015,-2.3125 0.0703,-0.0977 0.14063,-0.19532 0.21094,-0.29297 0.28516,-0.38672 0.57031,-0.77344 0.85547,-1.15625 0.85937,-1.14453 1.72656,-2.27735 2.60937,-3.39453 0.21875,-0.28125 0.44141,-0.55469 0.66016,-0.83203 0.22266,-0.27735 0.44531,-0.55469 0.66797,-0.82813 0.44531,-0.55078 0.89453,-1.09766 1.34375,-1.63672 0.22656,-0.26953 0.45312,-0.53906 0.67969,-0.80859 0.28515,-0.33594 0.5664,-0.66406 0.84765,-0.9961 0.0781,-0.0859 0.15625,-0.17578 0.23047,-0.26562 0.22266,-0.25391 0.44141,-0.50781 0.66406,-0.75781 0.0703,-0.082 0.14454,-0.16797 0.21485,-0.25 0.28515,-0.32032 0.5664,-0.64453 0.85547,-0.96094 0.043,-0.0547 0.0937,-0.10547 0.14062,-0.15625 0.2461,-0.27734 0.48828,-0.54688 0.73438,-0.81641 0.082,-0.0898 0.16015,-0.17578 0.24218,-0.26562 0.24219,-0.26563 0.48438,-0.53125 0.73047,-0.79297 0.0508,-0.0508 0.10157,-0.10938 0.15235,-0.16406 0.28906,-0.3125 0.57812,-0.6211 0.87109,-0.92969 0.0742,-0.0781 0.15234,-0.16016 0.22656,-0.23828 0.22266,-0.23438 0.44141,-0.46485 0.66407,-0.69531 0.0859,-0.0899 0.17578,-0.17969 0.26171,-0.26954 1.04688,0.38282 2.14844,0.57813 3.25782,0.56641 1.78906,-0.0195 3.59375,-0.56641 5.21093,-1.69922 0.0547,-0.0351 0.10938,-0.0742 0.16407,-0.10937 0.23437,-0.16797 0.47265,-0.33203 0.71093,-0.4961 0.23438,-0.16015 0.47266,-0.32422 0.71094,-0.48437 0.39063,-0.26563 0.78516,-0.53125 1.17969,-0.79688 0.28125,-0.1875 0.56641,-0.375 0.85156,-0.5625 2.72656,-1.78515 5.4961,-3.47265 8.32031,-5.05859 0.74219,-0.41406 1.48829,-0.82422 2.23829,-1.22656 2.57031,-1.38282 5.17968,-2.67578 7.82421,-3.88672 1.79297,2.53515 4.40625,4.10156 7.22266,4.14844 0.93359,0.0156 1.88676,-0.13282 2.84376,-0.46875 0.3515,-0.125 0.7031,-0.2461 1.0586,-0.36719 0.2031,-0.0703 0.4062,-0.13672 0.6094,-0.20313 0.1367,-0.0469 0.2773,-0.0937 0.4179,-0.14062 0.3242,-0.10547 0.6485,-0.21094 0.9727,-0.31641 0.01,-0.004 0.012,-0.004 0.019,-0.008 0.3437,-0.10938 0.6836,-0.21484 1.0273,-0.32031 0.875,-0.27344 1.75,-0.53516 2.6289,-0.78516 2.2656,-0.64062 4.5469,-1.21094 6.8477,-1.71094 0.7656,-0.16797 1.5351,-0.32812 2.3047,-0.47656 1.1562,-0.22656 2.3164,-0.43359 3.4804,-0.625 0.7735,-0.125 1.5547,-0.24219 2.3321,-0.35156 0.3906,-0.0586 0.7812,-0.10938 1.1718,-0.16016 1.1719,-0.15234 2.3477,-0.28515 3.5274,-0.39844 0.3945,-0.0391 0.7851,-0.0742 1.1797,-0.10937 0.789,-0.0664 1.5781,-0.125 2.3711,-0.17969 0.3945,-0.0234 0.789,-0.0508 1.1875,-0.0703 1.5859,-0.0859 3.1757,-0.13672 4.7773,-0.15234 0.3984,-0.004 0.7969,-0.008 1.1992,-0.008 0.3985,0 0.8008,0.004 1.1992,0.008 1.5977,0.0195 3.1915,0.0703 4.7774,0.15234 0.3945,0.0234 0.7891,0.0469 1.1875,0.0703 0.7891,0.0547 1.582,0.11328 2.3672,0.17969 0.3945,0.0352 0.789,0.0703 1.1836,0.10937 1.1797,0.11329 2.3554,0.2461 3.5273,0.39844 0.3906,0.0508 0.7774,0.10547 1.168,0.16016 1.5625,0.21875 3.1133,0.47265 4.6562,0.7539 0.3868,0.0742 0.7735,0.14454 1.1563,0.22266 0.7695,0.14844 1.539,0.30859 2.3047,0.47656 2.3008,0.5 4.582,1.07032 6.8476,1.71094 0.8789,0.25 1.7578,0.51172 2.6289,0.78516 0.3438,0.10547 0.6836,0.21093 1.0274,0.32031 0,0.004 0.012,0.004 0.019,0.008 0.3203,0.10547 0.6484,0.20703 0.9726,0.31641 0.1407,0.0469 0.2774,0.0898 0.418,0.14062 0.2031,0.0664 0.4063,0.13672 0.6094,0.20313 0.3554,0.12109 0.707,0.24219 1.0586,0.36719 0.957,0.33593 1.9101,0.48437 2.8437,0.46875 2.8164,-0.0469 5.4297,-1.61329 7.2227,-4.14844 2.6445,1.21094 5.2539,2.5039 7.8242,3.88672 0.75,0.40234 1.4961,0.8125 2.2383,1.22656 2.8203,1.58594 5.5937,3.27344 8.3203,5.05859 0.2812,0.1875 0.5664,0.375 0.8516,0.5625 0.3945,0.26563 0.789,0.53125 1.1796,0.79688 0.2383,0.16015 0.4766,0.32031 0.711,0.48437 0.2929,0.19922 0.5859,0.40235 0.875,0.60547 0.2929,0.20703 0.5937,0.39453 0.8984,0.5625 0.2305,0.125 0.461,0.23828 0.6953,0.34375 0.3125,0.14063 0.6289,0.26172 0.9492,0.36328 0.1602,0.0508 0.3204,0.0977 0.4805,0.14063 0.1602,0.043 0.3203,0.0781 0.4844,0.10937 0.5664,0.11719 1.1367,0.17578 1.707,0.1836 0.7305,0.008 1.4571,-0.0742 2.168,-0.24219 0.1601,-0.0352 0.3164,-0.0781 0.4726,-0.125 0.2071,-0.0586 0.4102,-0.125 0.6172,-0.20313 0.086,0.0899 0.1719,0.17969 0.2578,0.26954 0.2227,0.23046 0.4454,0.46093 0.6641,0.69531 0.078,0.0781 0.1524,0.15625 0.2305,0.23828 0.289,0.30859 0.582,0.62109 0.8711,0.92969 0.051,0.0547 0.1015,0.10937 0.1523,0.16406 0.2461,0.26172 0.4883,0.52734 0.7305,0.79297 0.082,0.0898 0.1601,0.17578 0.2422,0.26562 0.2422,0.26953 0.4883,0.53907 0.7343,0.81641 0.047,0.0508 0.094,0.10156 0.1407,0.15625 0.2851,0.31641 0.5703,0.63672 0.8554,0.96094 0.07,0.082 0.1446,0.16797 0.2149,0.25 0.2226,0.25 0.4414,0.5039 0.664,0.75781 0.074,0.0898 0.1524,0.17969 0.2305,0.26562 0.2813,0.33204 0.5625,0.66407 0.8477,0.9961 0.2265,0.26953 0.4531,0.53906 0.6797,0.80859 0.4492,0.54297 0.8984,1.08594 1.3437,1.63672 0.2266,0.27344 0.4453,0.54688 0.668,0.82813 0.2226,0.27734 0.4414,0.55078 0.6601,0.83203 0.8828,1.11718 1.75,2.25 2.6094,3.39453 0.2852,0.38281 0.5703,0.76953 0.8555,1.15625 0.07,0.0976 0.1406,0.19531 0.2109,0.29297 0.4766,0.64843 0.9453,1.30078 1.4141,1.96093 0.164,0.23047 0.3281,0.46485 0.4883,0.69532 0,0.004 0.01,0.008 0.012,0.0156 0.1992,0.28516 0.4023,0.57813 0.6015,0.86719 0.066,0.0937 0.1367,0.19141 0.2031,0.28906 0.2735,0.39844 0.5704,0.76953 0.875,1.11328 0.01,0.008 0.012,0.0117 0.016,0.0195 0.2422,0.26563 0.4922,0.51563 0.75,0.7461 v 0.004 c 0.5938,0.53516 1.2305,0.98047 1.8946,1.33594 0,0 0,0.004 0.01,0.004 0.4453,0.23437 0.8945,0.43359 1.3593,0.58594 h 0 c 0.07,0.0273 0.1485,0.0508 0.2227,0.0742 h 0 c 0.012,0.004 0.027,0.008 0.039,0.0117 0.066,0.0234 0.1289,0.0391 0.1953,0.0586 0.023,0.008 0.043,0.0117 0.066,0.0156 0.055,0.0156 0.1094,0.0312 0.1641,0.0469 h 0.01 c 0.023,0.008 0.055,0.0117 0.078,0.0195 0.055,0.0117 0.1055,0.0234 0.1562,0.0351 0.019,0.004 0.039,0.008 0.059,0.0117 0.2969,0.0625 0.5977,0.10938 0.8985,0.14063 0.059,0.004 0.1172,0.0117 0.1718,0.0156 0.023,0.004 0.043,0.004 0.066,0.008 0.039,0 0.078,0.004 0.1172,0.004 0.043,0.004 0.086,0.008 0.1289,0.008 0.039,0.004 0.074,0.004 0.1133,0.004 0.039,0.004 0.082,0.004 0.1211,0.004 h 0 0.1094 0.1289 0 0.062 c 0.059,-0.004 0.1172,-0.004 0.1797,-0.004 0.039,-0.004 0.082,-0.004 0.1211,-0.008 0.043,0 0.078,-0.004 0.1211,-0.004 0.047,-0.004 0.098,-0.008 0.1445,-0.0117 0.031,-0.004 0.062,-0.004 0.094,-0.0117 h 0 c 0.027,0 0.055,-0.004 0.086,-0.008 0.1289,-0.0156 0.2617,-0.0312 0.3945,-0.0508 0.1289,-0.0234 0.2539,-0.0469 0.3828,-0.0703 0.031,-0.008 0.066,-0.0117 0.098,-0.0195 0,0 0.012,-0.004 0.016,-0.004 0.094,-0.0234 0.1915,-0.0469 0.2852,-0.0703 0.1016,-0.0274 0.1992,-0.0508 0.2969,-0.082 0.07,-0.0195 0.1406,-0.043 0.2109,-0.0625 0.039,0.0703 0.082,0.14062 0.1172,0.21093 0.1602,0.27735 0.3164,0.5586 0.4766,0.83985 1.1757,2.10547 2.3047,4.25 3.3828,6.43359 5.2695,10.69141 17.5898,12.15235 25.789,6.9336 0.1016,-0.0664 0.1993,-0.12891 0.3008,-0.19532 0.1367,-0.0898 0.2774,-0.1875 0.4141,-0.28515 0.25,-0.17969 0.4961,-0.35938 0.7344,-0.55078 0.1718,-0.13672 0.3437,-0.27344 0.5117,-0.41407 0.375,-0.32031 0.7383,-0.66015 1.0898,-1.01172 0.2539,-0.25781 0.4961,-0.51953 0.7344,-0.79296 0.1445,-0.16407 0.2812,-0.33204 0.418,-0.5 0.031,-0.0391 0.062,-0.0781 0.094,-0.11329 0.1328,-0.16796 0.2656,-0.33984 0.3906,-0.51562 0.07,-0.0977 0.1406,-0.19531 0.2109,-0.29688 0.1367,-0.19921 0.2735,-0.40234 0.4024,-0.60937 0.1289,-0.20703 0.2578,-0.41797 0.3789,-0.63281 0.125,-0.21485 0.2422,-0.42969 0.3554,-0.65235 0.168,-0.33203 0.3282,-0.66797 0.4805,-1.01562 0.1992,-0.46485 0.3789,-0.94141 0.5391,-1.42969 0.039,-0.125 0.078,-0.24609 0.1172,-0.37109 0.1093,-0.3711 0.2148,-0.75391 0.3007,-1.14063 0.031,-0.13281 0.059,-0.26172 0.086,-0.39062 0.027,-0.14063 0.055,-0.27735 0.078,-0.42188 0,0 0,0 0,-0.004 0.039,-0.14063 0.062,-0.28125 0.086,-0.42579 z m 0,0"
     id="path6"
     style="fill:#204a87"
     inkscape:connector-curvature="0" />
  <path
     d="m 1038.8008,629.4883 c 46.7656,0 87.4649,28.87109 108.461,71.45703 8.2265,16.69141 33.6289,10.89453 33.7343,-7.71484 0,-0.2461 0,-0.4961 0,-0.74219 0,-75.88281 -63.6601,-137.39844 -142.1953,-137.39844 -78.53124,0 -142.1953,61.51563 -142.1953,137.39844 0,0.2461 0,0.4961 0.004,0.74219 0.10156,18.60937 25.50391,24.40625 33.73438,7.71484 20.99219,-42.58594 61.69141,-71.45703 108.45702,-71.45703 z m 0,0"
     id="path8"
     inkscape:connector-curvature="0"
     style="fill:#f7cb15" />
  <path
     d="m 1147.2618,688.42971 c -20.9961,-42.58594 -61.6954,-71.46094 -108.461,-71.46094 -46.76561,0 -87.46483,28.875 -108.46093,71.46094 -7.74218,15.70312 -30.69921,11.49609 -33.46093,-4.5625 -0.1836,2.84765 -0.27735,5.72656 -0.27735,8.61718 0,0.25 0,0.4961 0.004,0.7461 0.10157,18.60937 25.50392,24.40234 33.73438,7.71484 20.9961,-42.58594 61.69141,-71.46094 108.45703,-71.46094 46.7656,0 87.4648,28.875 108.4609,71.46094 8.2266,16.6875 33.6329,10.89063 33.7344,-7.71484 0,-0.25 0,-0.4961 0,-0.7461 0,-2.89453 -0.09,-5.76953 -0.2734,-8.61718 -2.7617,16.05859 -25.7149,20.26562 -33.4571,4.5625 z m 0,0"
     id="path10"
     inkscape:connector-curvature="0"
     style="fill:#e7ad27" />
  <path
     d="m 896.99222,696.9883 c 5.42578,-71.09375 66.84375,-127.14844 141.80858,-127.14844 74.9649,0 136.3828,56.05469 141.8047,127.14844 0.2461,-1.18359 0.3828,-2.4375 0.3867,-3.75781 0,-0.25 0,-0.4961 0,-0.7461 0,-75.8789 -63.664,-137.39453 -142.1953,-137.39453 -78.53124,0 -142.1953,61.51172 -142.1953,137.39453 v 0.7461 c 0.008,1.3164 0.14063,2.57031 0.38672,3.75781 z m 0,0"
     id="path12"
     inkscape:connector-curvature="0"
     style="fill:#fede3a" />
  <path
     d="m 1156.1289,603.78518 c 9.375,14.14062 17.0157,30.00781 22.5508,47.13281 1.5235,4.71094 0.1641,10.0039 -3.2773,13.07031 -9.6953,8.65625 -19.1172,17.66797 -28.2656,27.04688 -4.1836,4.28515 -10.6211,3.625 -14.1094,-1.4336 -6.5899,-9.5625 -13.9297,-18.13281 -21.8906,-25.53125 -4.3594,-4.05078 -4.9688,-11.52344 -1.2579,-16.37109 10.6758,-13.96094 20.8907,-28.53516 30.6329,-43.73047 3.8632,-6.02344 11.6718,-6.13672 15.6171,-0.18359 z m 0,0"
     id="path14"
     inkscape:connector-curvature="0"
     style="fill:#f7cb15" />
  <path
     d="m 1155.8828,603.42971 c -0.043,-0.0586 -0.086,-0.11719 -0.1289,-0.17578 -0.027,-0.0391 -0.059,-0.0742 -0.086,-0.11329 -0.035,-0.0469 -0.07,-0.0937 -0.1093,-0.13671 -0.031,-0.043 -0.066,-0.082 -0.098,-0.125 -0.031,-0.0391 -0.066,-0.0781 -0.098,-0.11719 -0.035,-0.043 -0.066,-0.0781 -0.1016,-0.11719 -0.035,-0.043 -0.07,-0.0859 -0.1094,-0.125 -0.027,-0.0352 -0.059,-0.0664 -0.09,-0.0977 -0.039,-0.043 -0.078,-0.0859 -0.1172,-0.1289 -0.031,-0.0312 -0.062,-0.0625 -0.09,-0.0937 -0.043,-0.043 -0.082,-0.082 -0.125,-0.125 -0.031,-0.0352 -0.066,-0.0664 -0.1015,-0.10156 -0.035,-0.0352 -0.074,-0.0703 -0.1094,-0.10547 -0.039,-0.0312 -0.074,-0.0664 -0.1133,-0.10157 -0.035,-0.0352 -0.074,-0.0664 -0.1094,-0.10156 -0.035,-0.0312 -0.07,-0.0586 -0.1054,-0.0898 -0.043,-0.0352 -0.082,-0.0703 -0.125,-0.10547 -0.031,-0.0273 -0.066,-0.0586 -0.1016,-0.082 -0.039,-0.0352 -0.082,-0.0703 -0.125,-0.10156 -0.039,-0.0273 -0.074,-0.0586 -0.1133,-0.0859 -0.039,-0.0273 -0.078,-0.0586 -0.1172,-0.0859 -0.039,-0.0312 -0.078,-0.0586 -0.1211,-0.0859 -0.035,-0.0312 -0.074,-0.0547 -0.1132,-0.082 -0.039,-0.0312 -0.086,-0.0586 -0.1289,-0.0859 -0.035,-0.0234 -0.07,-0.0469 -0.1094,-0.0703 -0.039,-0.0273 -0.082,-0.0547 -0.125,-0.082 -0.039,-0.0234 -0.082,-0.0508 -0.1211,-0.0742 -0.039,-0.0234 -0.082,-0.0469 -0.1211,-0.0703 -0.039,-0.0195 -0.078,-0.043 -0.1211,-0.0664 -0.043,-0.0234 -0.09,-0.0508 -0.1328,-0.0742 -0.035,-0.0195 -0.074,-0.0391 -0.1094,-0.0586 -0.047,-0.0234 -0.09,-0.0469 -0.1367,-0.0703 -0.039,-0.0195 -0.078,-0.0352 -0.1172,-0.0547 -0.043,-0.0234 -0.09,-0.043 -0.1328,-0.0625 -0.039,-0.0195 -0.078,-0.0352 -0.1172,-0.0547 -0.047,-0.0195 -0.094,-0.0391 -0.1406,-0.0586 -0.035,-0.0156 -0.07,-0.0273 -0.1055,-0.043 -0.051,-0.0234 -0.1015,-0.043 -0.1523,-0.0625 -0.035,-0.0117 -0.066,-0.0234 -0.098,-0.0352 -0.051,-0.0195 -0.1055,-0.0391 -0.1602,-0.0586 -0.031,-0.0117 -0.066,-0.0195 -0.1015,-0.0352 -0.051,-0.0156 -0.1055,-0.0352 -0.1602,-0.0508 -0.027,-0.008 -0.059,-0.0156 -0.086,-0.0273 -0.059,-0.0195 -0.1172,-0.0352 -0.1758,-0.0508 -0.023,-0.008 -0.051,-0.0156 -0.078,-0.0195 -0.1484,-0.043 -0.2969,-0.0781 -0.4492,-0.11328 -0,0 -0.01,0 -0.016,0 -0.4258,-0.0898 -0.8633,-0.14844 -1.2969,-0.17188 h -0.01 c -0.074,-0.004 -0.1484,-0.008 -0.2265,-0.0117 -0.012,0 -0.027,0 -0.043,0 -0.074,-0.004 -0.1485,-0.004 -0.2227,-0.004 -0.016,0 -0.027,0 -0.039,0 -0.078,0 -0.1563,0.004 -0.2383,0.008 -0.01,0 -0.016,0 -0.027,0 -0.078,0.004 -0.1562,0.008 -0.2344,0.0117 -0.01,0 -0.019,0 -0.031,0 -0.074,0.008 -0.1484,0.0117 -0.2187,0.0195 -0.019,0.004 -0.035,0.004 -0.055,0.004 -0.074,0.008 -0.1445,0.0156 -0.2188,0.0273 -0.016,0 -0.027,0.004 -0.039,0.004 -0.074,0.0117 -0.1484,0.0195 -0.2226,0.0312 -0.016,0.004 -0.031,0.004 -0.047,0.008 -0.07,0.0156 -0.1406,0.0273 -0.211,0.0391 -0.02,0.004 -0.035,0.008 -0.055,0.0117 -0.07,0.0117 -0.1406,0.0273 -0.2148,0.0469 -0.012,0.004 -0.027,0.004 -0.043,0.008 -0.07,0.0156 -0.1445,0.0352 -0.2148,0.0508 -0.016,0.004 -0.031,0.008 -0.047,0.0117 -0.074,0.0195 -0.1407,0.0391 -0.2149,0.0586 -0.016,0.004 -0.031,0.008 -0.047,0.0156 -0.07,0.0234 -0.1445,0.043 -0.2187,0.0664 -0.01,0.004 -0.019,0.008 -0.031,0.0117 -0.078,0.0273 -0.1524,0.0508 -0.2305,0.0781 -0,0.004 -0.012,0.008 -0.02,0.008 -0.078,0.0312 -0.1562,0.0586 -0.2344,0.0898 -0.01,0 -0.012,0.004 -0.019,0.008 -0.078,0.0312 -0.1562,0.0625 -0.2382,0.0977 -1.504,0.64453 -2.8946,1.72656 -4.0157,3.24219 3.5313,-0.89453 7.4219,0.46875 9.8516,4.13281 9.375,14.14062 17.0156,30.00781 22.5508,47.13281 1.5234,4.71094 0.164,10.00391 -3.2735,13.07422 -1.6211,1.44141 -2.6367,2.8125 -3.1601,4.04297 2.8047,-2.60937 5.6328,-5.1875 8.4844,-7.73437 3.4375,-3.0625 4.7968,-8.35157 3.2812,-13.0625 0,0 -0,-0.008 -0,-0.008 -0.3437,-1.07031 -0.6992,-2.13672 -1.0625,-3.19531 -1.2656,-3.71094 -2.6367,-7.36328 -4.0977,-10.94531 -0.4179,-1.02344 -0.8437,-2.04297 -1.2812,-3.05469 -0.2148,-0.50391 -0.4336,-1.01172 -0.6523,-1.51172 -0.4454,-1.00781 -0.8907,-2.01172 -1.3516,-3.00781 -0.2266,-0.49609 -0.457,-0.99219 -0.6875,-1.48828 -0.6953,-1.48828 -1.4102,-2.95703 -2.1406,-4.41797 -0.7305,-1.45703 -1.4766,-2.90234 -2.2383,-4.33594 -1.0195,-1.90625 -2.0664,-3.79297 -3.1406,-5.65234 -1.8789,-3.25391 -3.8477,-6.42969 -5.8985,-9.52344 -0.059,-0.0898 -0.1211,-0.17969 -0.1836,-0.26953 -0.031,-0.0273 -0.051,-0.0547 -0.07,-0.082 z m 0,0"
     id="path16"
     inkscape:connector-curvature="0"
     style="fill:#fede3a" />
  <path
     d="m 1133.0391,689.61721 c 3.4883,5.04687 9.918,5.70312 14.0977,1.41797 4.1757,-4.28125 8.414,-8.48438 12.7031,-12.61329 -0.4102,0.20704 -0.8867,0.58204 -1.4336,1.14063 -4.1836,4.28906 -10.625,3.62891 -14.1094,-1.43359 -6.5898,-9.5625 -13.9297,-18.13282 -21.8906,-25.52735 -4.3633,-4.05469 -4.9688,-11.52734 -1.2617,-16.375 9.039,-11.8125 -0.5899,-2.48437 -11.2657,11.47266 -1.0429,1.36328 -1.7461,2.9375 -2.1171,4.58203 -0.023,0.0898 -0.043,0.18359 -0.062,0.27344 -0.4102,2.01953 -0.3321,4.13672 0.2148,6.10547 0.074,0.26953 0.1562,0.53515 0.25,0.79687 0.062,0.17578 0.125,0.34766 0.1953,0.51953 0.035,0.0859 0.07,0.17188 0.1055,0.25391 0.074,0.17187 0.1523,0.33984 0.2304,0.5039 0.082,0.16797 0.1641,0.33204 0.254,0.49219 0.086,0.16406 0.1796,0.32422 0.2734,0.48047 0.5234,0.86719 1.1641,1.66797 1.9141,2.36328 0.746,0.69531 1.4882,1.39844 2.2226,2.10938 0.4883,0.47656 0.9766,0.95703 1.4609,1.4414 0.2422,0.24219 0.4844,0.48828 0.7266,0.73047 2.6524,2.69141 5.2344,5.51953 7.7305,8.47266 0.2265,0.26953 0.4531,0.53906 0.6758,0.80859 0.9023,1.08203 1.7929,2.17969 2.6757,3.29688 0.8829,1.11718 1.75,2.25 2.6094,3.39453 1.2891,1.72265 2.5508,3.48047 3.7852,5.27734 0.012,0.008 0.012,0.0117 0.016,0.0156 z m 0,0"
     id="path18"
     inkscape:connector-curvature="0"
     style="fill:#e7ad27" />
  <path
     d="m 1178.6797,650.91799 c -0.4844,-1.50391 -0.9883,-2.99219 -1.5039,-4.47656 -0.8008,1.76953 -1.9375,3.36328 -3.3672,4.63671 -11.789,10.52344 -23.25,21.48438 -34.375,32.89063 -2.2851,2.33984 -5.1211,3.46875 -7.9414,3.44531 0.5196,0.72266 1.0313,1.45313 1.5352,2.1875 3.4883,5.0586 9.9258,5.71875 14.1094,1.4336 9.1484,-9.37891 18.5703,-18.39454 28.2656,-27.04688 3.4414,-3.0664 4.8008,-8.35937 3.2773,-13.07031 z m 0,0"
     id="path20"
     inkscape:connector-curvature="0"
     style="fill:#e7ad27" />
  <path
     d="m 1153.6914,610.6758 c -11.5703,17.44141 -22.2109,35.38672 -31.9218,53.84375 -2.7774,5.26953 -9.0899,6.91406 -13.793,3.6211 -11.2656,-7.88282 -23.4609,-14.04688 -36.3398,-18.19532 -5.668,-1.82812 -8.6172,-8.59765 -6.2266,-14.46093 8.957,-21.92969 16.7305,-44.50782 23.3164,-67.73047 1.7187,-6.04688 7.9297,-9.04297 13.3047,-6.57422 18.8281,8.65234 35.8945,20.72265 50.4844,35.46875 3.6171,3.65234 4.0586,9.67187 1.1757,14.02734 z m 0,0"
     id="path22"
     inkscape:connector-curvature="0"
     style="fill:#fede3a" />
  <path
     d="m 1152.5157,596.64846 c -14.5899,-14.7461 -31.6563,-26.81641 -50.4844,-35.46875 -5.375,-2.46875 -11.586,0.52734 -13.3047,6.57422 -6.5859,23.22265 5.2969,1.42968 10.6719,3.89843 18.8242,8.65235 35.8945,20.72657 50.4843,35.46875 1.4102,1.42578 2.336,3.21485 2.7696,5.11719 0.3437,-0.52344 0.6914,-1.04297 1.0351,-1.5625 2.8868,-4.35547 2.4453,-10.375 -1.1718,-14.02734 z m 0,0"
     id="path24"
     inkscape:connector-curvature="0"
     style="fill:#fff335" />
  <path
     d="m 1065.4102,635.48439 c 8.957,-21.92968 17.9687,-35.70703 10.2461,-16.80078 -2.3945,5.86328 0.5547,12.63282 6.2265,14.46094 12.879,4.14844 25.0743,10.3125 36.336,18.19531 3.3828,2.36719 7.5937,2.1836 10.7265,-0.0625 -2.4453,4.38282 -4.8359,8.79688 -7.1757,13.24219 -2.7774,5.26953 -9.0899,6.91406 -13.793,3.62109 -11.2656,-7.88281 -23.4609,-14.04687 -36.3398,-18.19531 -5.668,-1.82812 -8.6172,-8.59765 -6.2266,-14.46094 z m 0,0"
     id="path26"
     inkscape:connector-curvature="0"
     style="fill:#f7cb15" />
  <path
     d="m 1152.5157,596.64846 c -2.2266,-2.25 -4.5118,-4.4375 -6.8516,-6.5625 1.7031,3.97656 1.3477,8.80078 -1.1484,12.55859 -13.4532,20.28516 -25.8243,41.15625 -37.1211,62.61719 -0.3243,0.61719 -0.6914,1.1914 -1.0938,1.72265 0.5625,0.38282 1.1211,0.76563 1.6758,1.15235 4.707,3.29297 11.0195,1.65234 13.793,-3.6211 9.7109,-18.45312 20.3515,-36.40234 31.9218,-53.84375 2.8829,-4.35156 2.4414,-10.37109 -1.1757,-14.02343 z m 0,0"
     id="path28"
     inkscape:connector-curvature="0"
     style="fill:#e7ad27" />
  <path
     d="m 921.47269,603.78518 c -9.375,14.14062 -17.01953,30.00781 -22.55078,47.13281 -1.52344,4.71094 -0.16407,10.0039 3.27343,13.07031 9.69532,8.65625 19.11719,17.66797 28.26563,27.04688 4.18359,4.28515 10.625,3.625 14.10937,-1.4336 6.58985,-9.5625 13.9336,-18.13281 21.89063,-25.53125 4.36328,-4.05078 4.97265,-11.52344 1.26172,-16.37109 -10.67969,-13.96094 -20.88672,-28.53516 -30.63282,-43.73047 -3.86718,-6.02344 -11.67187,-6.13672 -15.61718,-0.18359 z m 0,0"
     id="path30"
     inkscape:connector-curvature="0"
     style="fill:#f7cb15" />
  <path
     d="m 921.71878,603.42971 c 0.043,-0.0586 0.082,-0.11719 0.12891,-0.17578 0.0273,-0.0391 0.0547,-0.0742 0.0859,-0.11329 0.0352,-0.0469 0.0703,-0.0937 0.10547,-0.13671 0.0352,-0.043 0.0664,-0.082 0.10157,-0.125 0.0352,-0.0391 0.0664,-0.0781 0.0977,-0.11719 0.0352,-0.043 0.0664,-0.0781 0.10156,-0.11719 0.0352,-0.043 0.0703,-0.0859 0.10547,-0.125 0.0312,-0.0352 0.0625,-0.0664 0.0898,-0.0977 0.0391,-0.043 0.082,-0.0859 0.12109,-0.1289 0.0312,-0.0312 0.0586,-0.0625 0.0898,-0.0937 0.0391,-0.043 0.082,-0.082 0.1211,-0.125 0.0352,-0.0352 0.0703,-0.0664 0.10156,-0.10156 0.0391,-0.0352 0.0742,-0.0703 0.11328,-0.10547 0.0352,-0.0312 0.0742,-0.0664 0.11328,-0.10157 0.0352,-0.0352 0.0742,-0.0664 0.10938,-0.10156 0.0352,-0.0312 0.0703,-0.0586 0.10547,-0.0898 0.043,-0.0352 0.082,-0.0703 0.125,-0.10547 0.0312,-0.0273 0.0664,-0.0586 0.10156,-0.082 0.043,-0.0352 0.082,-0.0703 0.125,-0.10156 0.0391,-0.0273 0.0781,-0.0586 0.11328,-0.0859 0.0391,-0.0273 0.0781,-0.0586 0.11719,-0.0859 0.0391,-0.0312 0.0781,-0.0586 0.12109,-0.0859 0.0352,-0.0312 0.0742,-0.0547 0.11328,-0.082 0.043,-0.0312 0.0859,-0.0586 0.12891,-0.0859 0.0352,-0.0234 0.0703,-0.0469 0.10937,-0.0703 0.043,-0.0273 0.082,-0.0547 0.125,-0.082 0.0391,-0.0234 0.082,-0.0508 0.1211,-0.0742 0.043,-0.0234 0.082,-0.0469 0.12109,-0.0703 0.0391,-0.0195 0.0781,-0.043 0.1211,-0.0664 0.043,-0.0234 0.0898,-0.0508 0.13281,-0.0742 0.0352,-0.0195 0.0742,-0.0391 0.10937,-0.0586 0.0469,-0.0234 0.0898,-0.0469 0.13672,-0.0703 0.0391,-0.0195 0.0781,-0.0352 0.11719,-0.0547 0.043,-0.0234 0.0898,-0.043 0.13672,-0.0625 0.0352,-0.0195 0.0742,-0.0352 0.11328,-0.0547 0.0469,-0.0195 0.0937,-0.0391 0.14062,-0.0586 0.0352,-0.0156 0.0703,-0.0273 0.10547,-0.043 0.0508,-0.0234 0.10157,-0.043 0.15625,-0.0625 0.0312,-0.0117 0.0625,-0.0234 0.0937,-0.0352 0.0508,-0.0195 0.10547,-0.0391 0.16016,-0.0586 0.0312,-0.0117 0.0664,-0.0195 0.10156,-0.0352 0.0547,-0.0156 0.10547,-0.0352 0.16016,-0.0508 0.0273,-0.008 0.0586,-0.0156 0.0859,-0.0273 0.0586,-0.0195 0.11718,-0.0352 0.17578,-0.0508 0.0234,-0.008 0.0508,-0.0156 0.0781,-0.0195 0.14844,-0.043 0.30078,-0.0781 0.44922,-0.11328 h 0.0156 c 0.42968,-0.0898 0.86328,-0.14844 1.29687,-0.17188 h 0.008 c 0.0742,-0.004 0.14844,-0.008 0.22656,-0.0117 h 0.043 c 0.0742,-0.004 0.14844,-0.004 0.22266,-0.004 h 0.043 c 0.0781,0 0.15234,0.004 0.23437,0.008 h 0.0273 c 0.0781,0.004 0.15625,0.008 0.23828,0.0117 h 0.0312 c 0.0742,0.008 0.14453,0.0117 0.21875,0.0195 0.0156,0.004 0.0352,0.004 0.0508,0.004 0.0742,0.008 0.14453,0.0156 0.21875,0.0273 0.0156,0 0.0273,0.004 0.0391,0.004 0.0742,0.0117 0.14844,0.0195 0.22266,0.0312 0.0156,0.004 0.0312,0.004 0.0469,0.008 0.0703,0.0156 0.14063,0.0273 0.21485,0.0391 0.0156,0.004 0.0352,0.008 0.0508,0.0117 0.0742,0.0117 0.14453,0.0273 0.21484,0.0469 0.0156,0.004 0.0312,0.004 0.043,0.008 0.0742,0.0156 0.14844,0.0352 0.21875,0.0508 l 0.0469,0.0117 c 0.0703,0.0195 0.14062,0.0391 0.21484,0.0586 0.0156,0.004 0.0273,0.008 0.043,0.0156 0.0742,0.0234 0.14844,0.043 0.21875,0.0664 0.0117,0.004 0.0234,0.008 0.0352,0.0117 0.0742,0.0273 0.15235,0.0508 0.22657,0.0781 0.008,0.004 0.0156,0.008 0.0195,0.008 0.0781,0.0312 0.15625,0.0586 0.23437,0.0898 0.008,0 0.0156,0.004 0.0234,0.008 0.0781,0.0312 0.15625,0.0625 0.23828,0.0977 1.50391,0.64453 2.89453,1.72656 4.01563,3.24219 -3.53516,-0.89453 -7.42578,0.46875 -9.85156,4.13281 -9.375,14.14062 -17.01954,30.00781 -22.55469,47.13281 -1.51953,4.71094 -0.16016,10.00391 3.27734,13.07422 1.61719,1.44141 2.63281,2.8125 3.16016,4.04297 -2.80469,-2.60937 -5.63281,-5.1875 -8.48828,-7.73437 -3.4336,-3.0625 -4.79688,-8.35157 -3.27735,-13.0625 v -0.008 c 0.34766,-1.07031 0.70313,-2.13672 1.0625,-3.19531 1.26953,-3.71094 2.63672,-7.36328 4.10157,-10.94531 0.41796,-1.02344 0.84375,-2.04297 1.27734,-3.05469 0.21484,-0.50391 0.4375,-1.01172 0.65625,-1.51172 0.44141,-1.00781 0.89062,-2.01172 1.34766,-3.00781 0.23046,-0.49609 0.45703,-0.99219 0.6914,-1.48828 0.69531,-1.48828 1.41016,-2.95703 2.14063,-4.41797 0.73047,-1.45703 1.47265,-2.90234 2.23828,-4.33594 1.01953,-1.90625 2.0625,-3.79297 3.14062,-5.65234 1.87891,-3.25391 3.84766,-6.42969 5.89844,-9.52344 0.0586,-0.0898 0.12109,-0.17969 0.18359,-0.26953 0.0273,-0.0273 0.0469,-0.0547 0.0664,-0.082 z m 0,0"
     id="path32"
     inkscape:connector-curvature="0"
     style="fill:#fede3a" />
  <path
     d="m 944.56253,689.61721 c -3.48828,5.04687 -9.92188,5.70312 -14.10156,1.41797 -4.17578,-4.28125 -8.41016,-8.48438 -12.69922,-12.61329 0.41016,0.20704 0.88672,0.58204 1.43359,1.14063 4.1836,4.28906 10.6211,3.62891 14.10938,-1.43359 6.58984,-9.5625 13.92968,-18.13282 21.88672,-25.52735 4.36328,-4.05469 4.96875,-11.52734 1.26171,-16.375 -9.03906,-11.8125 0.58985,-2.48437 11.26563,11.47266 1.04687,1.36328 1.74609,2.9375 2.12109,4.58203 0.0195,0.0898 0.0391,0.18359 0.0547,0.27344 0.41406,2.01953 0.33203,4.13672 -0.21094,6.10547 -0.0742,0.26953 -0.16015,0.53515 -0.25,0.79687 -0.0625,0.17578 -0.1289,0.34766 -0.19922,0.51953 -0.0312,0.0859 -0.0703,0.17188 -0.10546,0.25391 -0.0703,0.17187 -0.14844,0.33984 -0.23047,0.5039 -0.0781,0.16797 -0.16407,0.33204 -0.25,0.49219 -0.0898,0.16406 -0.17969,0.32422 -0.27735,0.48047 -0.52343,0.86719 -1.16406,1.66797 -1.91406,2.36328 -0.74609,0.69531 -1.48828,1.39844 -2.22266,2.10938 -0.48828,0.47656 -0.97656,0.95703 -1.46093,1.4414 -0.24219,0.24219 -0.48438,0.48828 -0.72657,0.73047 -2.65234,2.69141 -5.23437,5.51953 -7.73046,8.47266 -0.22657,0.26953 -0.45313,0.53906 -0.67969,0.80859 -0.90235,1.08203 -1.79297,2.17969 -2.67578,3.29688 -0.87891,1.11718 -1.75,2.25 -2.60547,3.39453 -1.28906,1.72265 -2.55078,3.48047 -3.78516,5.27734 -0.004,0.008 -0.008,0.0117 -0.008,0.0156 z m 0,0"
     id="path34"
     inkscape:connector-curvature="0"
     style="fill:#e7ad27" />
  <path
     d="m 898.73831,650.91799 c 0.48438,-1.50391 0.98828,-2.99219 1.50391,-4.47656 0.80078,1.76953 1.9375,3.36328 3.36328,4.63671 11.79297,10.52344 23.25,21.48438 34.375,32.89063 2.28515,2.33984 5.125,3.46875 7.9414,3.44531 -0.51562,0.72266 -1.02734,1.45313 -1.53515,2.1875 -3.48438,5.0586 -9.92578,5.71875 -14.10938,1.4336 -9.14843,-9.37891 -18.57031,-18.39454 -28.26562,-27.04688 -3.4375,-3.0664 -4.79687,-8.35937 -3.27344,-13.07031 z m 0,0"
     id="path36"
     inkscape:connector-curvature="0"
     style="fill:#e7ad27" />
  <path
     d="m 923.91019,610.6758 c 11.5664,17.44141 22.21093,35.38672 31.92187,53.84375 2.77344,5.26953 9.08984,6.91406 13.79297,3.6211 11.26172,-7.88282 23.46094,-14.04688 36.33597,-18.19532 5.6679,-1.82812 8.6172,-8.59765 6.2265,-14.46093 -8.957,-21.92969 -16.72653,-44.50782 -23.31638,-67.73047 -1.71484,-6.04688 -7.92968,-9.04297 -13.30468,-6.57422 -18.82422,8.65234 -35.89063,20.72265 -50.48047,35.46875 -3.6211,3.65234 -4.0625,9.67187 -1.17578,14.02734 z m 0,0"
     id="path38"
     inkscape:connector-curvature="0"
     style="fill:#fede3a" />
  <path
     d="m 925.08597,596.64846 c 14.58984,-14.7461 31.65625,-26.81641 50.48047,-35.46875 5.375,-2.46875 11.58984,0.52734 13.30468,6.57422 6.58985,23.22265 -5.29687,1.42968 -10.66797,3.89843 -18.82812,8.65235 -35.89453,20.72657 -50.48437,35.46875 -1.41016,1.42578 -2.33594,3.21485 -2.77344,5.11719 -0.34375,-0.52344 -0.6875,-1.04297 -1.03515,-1.5625 -2.88672,-4.35547 -2.44532,-10.375 1.17578,-14.02734 z m 0,0"
     id="path40"
     inkscape:connector-curvature="0"
     style="fill:#fff335" />
  <path
     d="m 1012.1875,635.48439 c -8.957,-21.92968 -17.96481,-35.70703 -10.2422,-16.80078 2.3946,5.86328 -0.5585,12.63282 -6.22652,14.46094 -12.87891,4.14844 -25.07422,10.3125 -36.33984,18.19531 -3.38282,2.36719 -7.59375,2.1836 -10.72657,-0.0625 2.44922,4.38282 4.83985,8.79688 7.17969,13.24219 2.77344,5.26953 9.08984,6.91406 13.79297,3.62109 11.26172,-7.88281 23.46094,-14.04687 36.33597,-18.19531 5.6718,-1.82812 8.6211,-8.59765 6.2265,-14.46094 z m 0,0"
     id="path42"
     inkscape:connector-curvature="0"
     style="fill:#f7cb15" />
  <path
     d="m 925.08597,596.64846 c 2.22656,-2.25 4.51172,-4.4375 6.85156,-6.5625 -1.70703,3.97656 -1.34766,8.80078 1.14844,12.55859 13.45312,20.28516 25.82422,41.15625 37.11718,62.61719 0.32813,0.61719 0.69532,1.1914 1.09766,1.72265 -0.5625,0.38282 -1.12109,0.76563 -1.67969,1.15235 -4.70312,3.29297 -11.01562,1.65234 -13.79297,-3.6211 -9.71093,-18.45312 -20.35156,-36.40234 -31.92187,-53.84375 -2.88281,-4.35156 -2.44141,-10.37109 1.17969,-14.02343 z m 0,0"
     id="path44"
     inkscape:connector-curvature="0"
     style="fill:#e7ad27" />
  <path
     d="m 1038.8008,540.64455 c -18.4336,0 -36.1914,3.46484 -52.84765,9.87891 -4.90625,1.89062 -7.76953,8.25781 -6.55468,14.45312 5.43359,27.67578 8.69531,55.35547 9.78515,83.03125 0.3086,7.88281 6.38672,13.33594 12.50388,11.1875 11.8711,-4.16406 24.3047,-6.38281 37.1133,-6.38281 12.8086,0 25.2422,2.21484 37.1094,6.38281 6.1211,2.14844 12.1953,-3.30469 12.5039,-11.1875 1.0937,-27.67969 4.3555,-55.35547 9.7852,-83.03125 1.2148,-6.19531 -1.6485,-12.5625 -6.5547,-14.45312 -16.6563,-6.41407 -34.4141,-9.87891 -52.8438,-9.87891 z m 0,0"
     id="path46"
     style="fill:#fce94f"
     inkscape:connector-curvature="0" />
  <path
     d="m 1097.0938,570.78908 c -1.1914,-2.47656 -3.082,-4.42969 -5.4492,-5.34375 -16.6563,-6.41406 -34.4141,-9.8789 -52.8477,-9.8789 -18.4297,0 -36.1875,3.46484 -52.84375,9.8789 -2.36718,0.91406 -4.26171,2.86719 -5.44921,5.34375 -0.35938,-1.9375 -0.72657,-3.875 -1.10938,-5.8125 -1.21484,-6.19531 1.65234,-12.5625 6.55469,-14.45312 16.65625,-6.41407 34.41405,-9.87891 52.84765,-9.87891 18.4297,0 36.1875,3.46484 52.8438,9.87891 4.9062,1.89062 7.7695,8.25781 6.5546,14.45312 -0.375,1.9375 -0.7421,3.875 -1.1015,5.8125 z m 0,0"
     id="path48"
     inkscape:connector-curvature="0"
     style="fill:#fff335" />
  <g
     id="g56"
     style="fill:#f7cb15"
     transform="translate(800.00003,400.00002)">
    <path
       d="m 288.41406,219.32422 c -0.30859,7.88672 -6.38281,13.33594 -12.5039,11.1914 -11.86719,-4.16796 -24.30078,-6.38281 -37.10938,-6.38281 -12.80859,0 -25.24609,2.21485 -37.11328,6.38281 -6.11719,2.14454 -12.19141,-3.30468 -12.50391,-11.1914 -0.87109,-22.10547 -3.1289,-44.21485 -6.76953,-66.32031 -2.63281,2.89843 -3.89453,7.48046 -3.01562,11.97265 5.43359,27.67969 8.69531,55.35547 9.78515,83.03516 0.3086,7.8789 6.38672,13.33203 12.50391,11.1875 11.87109,-4.16797 24.30469,-6.38281 37.11328,-6.38281 12.8086,0 25.24219,2.21484 37.10938,6.38281 6.12109,2.14844 12.19531,-3.30469 12.5039,-11.1875 1.09375,-27.67969 4.35547,-55.35938 9.78516,-83.03516 0.88281,-4.49219 -0.38281,-9.07422 -3.01172,-11.97265 -3.64062,22.10546 -5.89844,44.21484 -6.77344,66.32031 z m 0,0"
       id="path50"
       inkscape:connector-curvature="0" />
    <path
       d="m 179.39844,164.97656 c 5.43359,27.67578 8.69531,55.35156 9.78515,83.03125 0.3125,7.88281 6.38672,13.33594 12.50391,11.1875 1.36328,-0.47656 2.73047,-0.92578 4.10547,-1.35156 -1.92969,-2.02734 -3.28906,-5.57422 -3.41406,-9.83203 -0.80079,-27.67969 -3.19141,-55.35938 -7.17969,-83.03516 -0.89453,-6.1914 1.20703,-12.5625 4.8125,-14.44922 12.22265,-6.41797 25.25781,-9.88281 38.78906,-9.88281 -18.42969,0 -36.1875,3.46484 -52.84375,9.88281 -4.91016,1.88672 -7.77344,8.25391 -6.55859,14.44922 z m 0,0"
       id="path52"
       inkscape:connector-curvature="0" />
    <path
       d="m 291.64453,150.52344 c -16.65625,-6.41407 -34.41406,-9.87891 -52.84375,-9.87891 13.52734,0 26.56641,3.46484 38.79297,9.87891 3.59766,1.89062 5.70312,8.25781 4.80859,14.45312 -3.98437,27.67578 -6.3789,55.35156 -7.17968,83.03125 -0.125,4.26172 -1.48438,7.8086 -3.41407,9.83203 1.375,0.42578 2.74219,0.87891 4.10547,1.35547 6.11719,2.14844 12.19141,-3.30469 12.50391,-11.1875 1.09375,-27.67969 4.35156,-55.35937 9.78515,-83.03515 1.21094,-6.19141 -1.65234,-12.5586 -6.55859,-14.44922 z m 0,0"
       id="path54"
       inkscape:connector-curvature="0" />
  </g>
</svg>
